<svg width="271" height="50" viewBox="0 0 271 50" fill="none" xmlns="http://www.w3.org/2000/svg">
<path d="M75.8596 48.8388C74.6224 48.8388 74.0038 48.241 74.0038 47.0455V8.1901C74.0038 7.75174 74.1834 7.43292 74.5426 7.23366C74.9417 6.99455 75.5803 6.875 76.4583 6.875H76.9372C77.8551 6.875 78.4937 6.99455 78.8528 7.23366C79.212 7.43292 79.3916 7.75174 79.3916 8.1901V44.2957H90.5862C91.3844 44.2957 91.7835 44.8935 91.7835 46.089V47.0455C91.7835 48.241 91.3844 48.8388 90.5862 48.8388H75.8596Z" fill="black"/>
<path d="M111.642 48.9583C110.764 48.9583 110.125 48.8388 109.726 48.5997C109.367 48.3606 109.187 48.0417 109.187 47.6432V8.1901C109.187 7.75174 109.367 7.43292 109.726 7.23366C110.125 6.99455 110.764 6.875 111.642 6.875H112.12C113.038 6.875 113.677 6.99455 114.036 7.23366C114.395 7.43292 114.575 7.75174 114.575 8.1901V47.6432C114.575 48.0417 114.395 48.3606 114.036 48.5997C113.677 48.8388 113.038 48.9583 112.12 48.9583H111.642Z" fill="black"/>
<path d="M145.158 48.9583C143.802 48.9583 143.003 48.5797 142.764 47.8226L131.869 8.66832C131.829 8.50892 131.789 8.36944 131.749 8.24988C131.709 8.13033 131.689 8.01077 131.689 7.89121C131.689 7.21374 132.427 6.875 133.904 6.875H134.922C135.48 6.875 135.959 6.9547 136.358 7.11411C136.758 7.23366 136.997 7.47277 137.077 7.83144L145.997 42.2035H146.236L155.216 7.83144C155.295 7.47277 155.535 7.23366 155.934 7.11411C156.373 6.9547 156.852 6.875 157.371 6.875H158.329C159.805 6.875 160.544 7.21374 160.544 7.89121C160.544 8.01077 160.524 8.13033 160.484 8.24988C160.484 8.36944 160.464 8.50892 160.424 8.66832L149.469 47.8226C149.229 48.5797 148.431 48.9583 147.074 48.9583H145.158Z" fill="black"/>
<path d="M180.133 48.9583C179.255 48.9583 178.617 48.8388 178.218 48.5997C177.858 48.3606 177.679 48.0417 177.679 47.6432V8.78788C177.679 7.59233 178.297 6.99455 179.535 6.99455H188.155C195.738 6.99455 199.529 10.9996 199.529 19.0098C199.529 21.3212 199.11 23.3537 198.272 25.1071C197.434 26.8207 195.957 27.9565 193.842 28.5144V28.7535C194.88 29.2716 195.738 29.989 196.416 30.9055C197.095 31.8221 197.693 33.0775 198.212 34.6715L201.984 46.4477C202.063 46.7665 202.143 47.0853 202.223 47.4041C202.303 47.6831 202.343 47.9023 202.343 48.0617C202.343 48.4602 202.163 48.7192 201.804 48.8388C201.445 48.9185 200.866 48.9583 200.068 48.9583H199.17C197.853 48.9583 197.075 48.5598 196.835 47.7628L193.184 36.2855C192.465 33.9741 191.647 32.4199 190.729 31.6229C189.851 30.8258 188.554 30.4273 186.838 30.4273H183.067V47.6432C183.067 48.0417 182.887 48.3606 182.528 48.5997C182.169 48.8388 181.53 48.9583 180.612 48.9583H180.133ZM183.067 25.8842H188.335C190.37 25.8842 191.827 25.3462 192.705 24.2702C193.623 23.1942 194.082 21.4408 194.082 19.0098C194.082 16.3796 193.623 14.4867 192.705 13.331C191.827 12.1354 190.37 11.5376 188.335 11.5376H183.067V25.8842Z" fill="black"/>
<path d="M222.098 48.9583C221.22 48.9583 220.581 48.8388 220.182 48.5997C219.823 48.3606 219.644 48.0417 219.644 47.6432V8.1901C219.644 7.75174 219.823 7.43292 220.182 7.23366C220.581 6.99455 221.22 6.875 222.098 6.875H222.577C223.495 6.875 224.133 6.99455 224.493 7.23366C224.852 7.43292 225.031 7.75174 225.031 8.1901V47.6432C225.031 48.0417 224.852 48.3606 224.493 48.5997C224.133 48.8388 223.495 48.9583 222.577 48.9583H222.098Z" fill="black"/>
<path d="M244.36 48.9583C242.884 48.9583 242.145 48.6196 242.145 47.9421C242.145 47.8226 242.145 47.703 242.145 47.5835C242.185 47.4639 242.225 47.3244 242.265 47.165L253.22 8.01077C253.46 7.25359 254.258 6.875 255.615 6.875H257.531C258.887 6.875 259.686 7.25359 259.925 8.01077L270.82 47.165C270.86 47.3244 270.9 47.4639 270.94 47.5835C270.98 47.703 271 47.8226 271 47.9421C271 48.6196 270.262 48.9583 268.785 48.9583H267.767C267.209 48.9583 266.73 48.8986 266.331 48.779C265.931 48.6196 265.692 48.3606 265.612 48.0019L262.978 38.0788H250.167L247.473 48.0019C247.394 48.3606 247.154 48.6196 246.755 48.779C246.356 48.8986 245.877 48.9583 245.318 48.9583H244.36ZM255.735 17.2763L251.305 33.6553H261.781L257.411 17.2763C257.251 16.7184 257.112 16.1206 256.992 15.483C256.912 14.8055 256.832 14.1878 256.752 13.6299H256.453C256.333 14.1878 256.214 14.8055 256.094 15.483C256.014 16.1206 255.894 16.7184 255.735 17.2763Z" fill="black"/>
<path d="M42.9174 48.1495C42.9174 48.8398 42.3579 49.3994 41.6679 49.3995H31.6363C30.9462 49.3995 30.3868 48.8398 30.3868 48.1495V46.4356H42.9174V48.1495ZM42.9174 44.4597H30.3868V13.1733H42.9174V44.4597ZM42.9174 11.1973H30.3868V10.3739H42.9174V11.1973ZM41.6679 0C42.3579 3.55155e-05 42.9174 0.559665 42.9174 1.25V8.39789H30.3868V1.25C30.3868 0.559643 30.9462 2.3519e-08 31.6363 0H41.6679Z" fill="#FEB913"/>
<path d="M57.1185 48.1495C57.1185 48.8398 56.5591 49.3995 55.869 49.3995H47.5082C46.8181 49.3995 46.2587 48.8398 46.2587 48.1495V42.3189H57.1185V48.1495ZM57.1185 40.6723H46.2587V39.0256H57.1185V40.6723ZM55.869 5.76328C56.5591 5.76329 57.1185 6.32293 57.1185 7.01328V37.3791H46.2587V7.01328C46.2587 6.32292 46.8181 5.76328 47.5082 5.76328H55.869Z" fill="#2364A0"/>
<path d="M24.0533 19.4936L12.3614 44.2057L2.52341 39.6844L1.81745 41.1768L11.6552 45.6981L9.96214 49.277C9.66693 49.9009 8.91929 50.1732 8.29224 49.8851L0.720687 46.4054C0.0936297 46.1172 -0.175388 45.3776 0.119836 44.7536L14.2112 14.9701L24.0533 19.4936ZM16.7028 9.70396C16.998 9.08 17.7456 8.80774 18.3727 9.09587L25.9442 12.5757C26.5713 12.8639 26.8403 13.6034 26.5451 14.2273L24.7594 18.0012L14.9171 13.4778L16.7028 9.70396Z" fill="#FF5C00"/>
</svg>
